<svg xmlns="http://www.w3.org/2000/svg" viewBox="0 0 1000 680" role="img" aria-label="brain coronal base image"><defs><linearGradient id="t" x1="0" y1="0" x2="0" y2="1"><stop stop-color="#e7edf3"/><stop offset="1" stop-color="#b8c7d6"/></linearGradient><pattern id="g" width="24" height="24" patternUnits="userSpaceOnUse"><path d="M24 0H0V24" fill="none" stroke="#edf2f7" stroke-width="1"/></pattern></defs><rect width="1000" height="680" fill="#fff"/><rect width="1000" height="680" fill="url(#g)"/><g transform="translate(55 65)"><g transform="translate(0 0)"><path d="M35 225C35 78 231 21 255 175c24-154 220-97 220 50c0 132-99 219-220 219S35 357 35 225Z" fill="url(#t)" stroke="#526b86" stroke-width="5"/><path d="M161 210c45-58 95-58 140 0c16 42-15 85-70 88c-55-3-86-46-70-88Z" fill="#efc7c7" stroke="#657b92" stroke-width="3"/><path d="M103 260c43-41 77-36 103 2m152-2c-43-41-77-36-103 2" fill="none" stroke="#b8e1d8" stroke-width="21"/></g><g transform="translate(305 0)"><path d="M35 225C35 78 231 21 255 175c24-154 220-97 220 50c0 132-99 219-220 219S35 357 35 225Z" fill="url(#t)" stroke="#526b86" stroke-width="5"/><path d="M161 210c45-58 95-58 140 0c16 42-15 85-70 88c-55-3-86-46-70-88Z" fill="#efc7c7" stroke="#657b92" stroke-width="3"/><path d="M103 260c43-41 77-36 103 2m152-2c-43-41-77-36-103 2" fill="none" stroke="#b8e1d8" stroke-width="21"/></g><g transform="translate(610 0)"><path d="M35 225C35 78 231 21 255 175c24-154 220-97 220 50c0 132-99 219-220 219S35 357 35 225Z" fill="url(#t)" stroke="#526b86" stroke-width="5"/><path d="M161 210c45-58 95-58 140 0c16 42-15 85-70 88c-55-3-86-46-70-88Z" fill="#efc7c7" stroke="#657b92" stroke-width="3"/><path d="M103 260c43-41 77-36 103 2m152-2c-43-41-77-36-103 2" fill="none" stroke="#b8e1d8" stroke-width="21"/></g></g></svg>