<svg xmlns="http://www.w3.org/2000/svg" viewBox="0 0 1000 680" role="img" aria-label="cerebrum lateral base image"><defs><linearGradient id="t" x1="0" y1="0" x2="0" y2="1"><stop stop-color="#e7edf3"/><stop offset="1" stop-color="#b8c7d6"/></linearGradient><pattern id="g" width="24" height="24" patternUnits="userSpaceOnUse"><path d="M24 0H0V24" fill="none" stroke="#edf2f7" stroke-width="1"/></pattern></defs><rect width="1000" height="680" fill="#fff"/><rect width="1000" height="680" fill="url(#g)"/><path d="M184 338C144 280 160 190 227 132C310 60 440 65 545 101C661 141 752 214 777 306C800 388 746 466 667 505C575 551 431 529 314 501C231 481 181 421 184 338Z" fill="url(#t)" stroke="#526b86" stroke-width="5"/><g fill="none" stroke="#8296aa" stroke-width="3"><path d="M229 163c57 42 39 103 20 160m66-207c-20 66 10 132 37 194m58-222c-15 75 8 150 41 220m70-196c-19 61 8 128 33 182m67-130c-18 57 5 118 25 166m56-92c-41 8-95 39-152 77-83 57-187 29-298 15"/><path d="M203 356c78-32 157 25 240-20 89-49 167-100 310-64M260 446c66-12 95 37 169 34m72-95c48 0 87 39 103 96m-235-126c32 36 20 91 4 132"/></g></svg>