<svg xmlns="http://www.w3.org/2000/svg" viewBox="0 0 1000 680" role="img" aria-label="dermatome anterior base image"><defs><linearGradient id="t" x1="0" y1="0" x2="0" y2="1"><stop stop-color="#e7edf3"/><stop offset="1" stop-color="#b8c7d6"/></linearGradient><pattern id="g" width="24" height="24" patternUnits="userSpaceOnUse"><path d="M24 0H0V24" fill="none" stroke="#edf2f7" stroke-width="1"/></pattern></defs><rect width="1000" height="680" fill="#fff"/><rect width="1000" height="680" fill="url(#g)"/><g transform="translate(250 32)"><circle cx="115" cy="76" r="48" fill="#d8e2eb" stroke="#526b86" stroke-width="4"/><path d="M65 129c-26 91-22 174 3 235l-54 229m148-464c26 91 22 174-3 235l54 229M67 150C9 182-11 235-31 300m192-150c58 32 78 85 98 150" fill="none" stroke="#d8e2eb" stroke-width="58" stroke-linecap="round"/><g stroke="#b65464" stroke-width="4"><path d="M67 201h96M64 252h102M67 304h96M77 356h76"/></g></g><g transform="translate(585 32)"><circle cx="115" cy="76" r="48" fill="#d8e2eb" stroke="#526b86" stroke-width="4"/><path d="M65 129c-26 91-22 174 3 235l-54 229m148-464c26 91 22 174-3 235l54 229M67 150C9 182-11 235-31 300m192-150c58 32 78 85 98 150" fill="none" stroke="#d8e2eb" stroke-width="58" stroke-linecap="round"/><g stroke="#456fbe" stroke-width="4"><path d="M67 201h96M64 252h102M67 304h96M77 356h76"/></g></g></svg>