<svg xmlns="http://www.w3.org/2000/svg" viewBox="0 0 1000 680" role="img" aria-label="spinal level base image"><defs><linearGradient id="t" x1="0" y1="0" x2="0" y2="1"><stop stop-color="#e7edf3"/><stop offset="1" stop-color="#b8c7d6"/></linearGradient><pattern id="g" width="24" height="24" patternUnits="userSpaceOnUse"><path d="M24 0H0V24" fill="none" stroke="#edf2f7" stroke-width="1"/></pattern></defs><rect width="1000" height="680" fill="#fff"/><rect width="1000" height="680" fill="url(#g)"/><path d="M480 70c-42 123-42 420 0 545c42-125 42-422 0-545Z" fill="url(#t)" stroke="#526b86" stroke-width="5"/><g stroke="#7c91a7" stroke-width="4"><path d="M450 158h60M446 246h68M443 336h74M448 426h64M455 515h50"/><path d="M454 180c-84 24-121 62-151 108m243-108c84 24 121 62 151 108M442 396c-82 26-119 64-144 111m260-111c82 26 119 64 144 111" fill="none"/></g></svg>