<svg xmlns="http://www.w3.org/2000/svg" viewBox="0 0 512 512" fill="none">
  <rect width="512" height="512" rx="112" fill="#f8f5ef"/>
  <g transform="rotate(-28 256 256)">
    <path
      d="M130 210c0-27 22-49 49-49 16 0 30 7 39 20h126c9-13 23-20 39-20 27 0 49 22 49 49 0 17-9 32-22 40 13 8 22 23 22 40 0 27-22 49-49 49-16 0-30-7-39-20H218c-9 13-23 20-39 20-27 0-49-22-49-49 0-17 9-32 22-40-13-8-22-23-22-40Z"
      fill="#fffdf8"
      stroke="#1c1917"
      stroke-width="18"
      stroke-linejoin="round"
    />
    <path
      d="M188 219h136c15 0 27 12 27 27v20c0 15-12 27-27 27H188c-15 0-27-12-27-27v-20c0-15 12-27 27-27Z"
      fill="#f1ede5"
    />
    <circle cx="170" cy="210" r="16" fill="#f1ede5"/>
    <circle cx="170" cy="302" r="16" fill="#f1ede5"/>
    <circle cx="342" cy="210" r="16" fill="#f1ede5"/>
    <circle cx="342" cy="302" r="16" fill="#f1ede5"/>
  </g>
</svg>
