<svg xmlns="http://www.w3.org/2000/svg" viewBox="0 0 512 512" fill="none">
  <rect width="512" height="512" rx="112" fill="#f5ecdd"/>
  <path d="M148 136c0-57 48-104 108-104s108 47 108 104v102c0 7-3 13-8 18l-17 16v66H173v-66l-17-16a25 25 0 0 1-8-18V136Z" fill="#f6f1e7" stroke="#231d1a" stroke-width="18" stroke-linejoin="round"/>
  <path d="M183 149c16-31 49-53 86-53s70 22 86 53v76c0 17-14 31-31 31H188c-17 0-31-14-31-31v-76Z" fill="#e0d2be"/>
  <path d="m138 88 40 33-60 15 20-48Z" fill="#d6ab7a" stroke="#231d1a" stroke-width="14" stroke-linejoin="round"/>
  <path d="m374 88-40 33 60 15-20-48Z" fill="#d6ab7a" stroke="#231d1a" stroke-width="14" stroke-linejoin="round"/>
  <path d="m185 191 49-18 10 57-51 20-8-59Z" fill="#231d1a"/>
  <path d="m327 191-49-18-10 57 51 20 8-59Z" fill="#231d1a"/>
  <path d="m256 220-24 48h48l-24-48Z" fill="#231d1a"/>
  <path d="M200 286c18 18 39 27 56 27s38-9 56-27" stroke="#231d1a" stroke-width="16" stroke-linecap="round"/>
  <path d="M202 334v72M256 334v72M310 334v72" stroke="#231d1a" stroke-width="14" stroke-linecap="round"/>
  <ellipse cx="146" cy="294" rx="18" ry="18" fill="#ffffff" fill-opacity=".45"/>
  <ellipse cx="362" cy="320" rx="15" ry="15" fill="#ffffff" fill-opacity=".35"/>
</svg>
